# xmcd
#
# Track frame offsets: 
#        150
#        17006
#        36076
#        47691
#        62029
#        82378
#        95663
#        112444
#        127155
#        137293
#        153193
#
# Disc length: 2330 seconds
#
# Revision: 0
# Processed by: cddbd v1.5.2PL0 Copyright (c) Steve Scherf et al.
# Submitted via: ExactAudioCopy v0.99pb5
#
DISCID=9909180b
DTITLE=Muskellunge Bluegrass - Gather at the River
DYEAR=2009
DGENRE=Bluegrass
TTITLE0=High Country
TTITLE1=Bright Angel Song
TTITLE2=Salt Creek
TTITLE3=Priced Out
TTITLE4=Sparks in the Fire
TTITLE5=A Drive up the Mountain
TTITLE6=Mary Says
TTITLE7=Calm Before the Storm
TTITLE8=Farewell Blues
TTITLE9=Cheers to the First Snow
TTITLE10=The Party's Over
EXTD=
EXTT0=
EXTT1=
EXTT2=
EXTT3=
EXTT4=
EXTT5=
EXTT6=
EXTT7=
EXTT8=
EXTT9=
EXTT10=
PLAYORDER=
